# xmcd
# Track frame offsets:
# 150
# 15415
# 26402
# 38070
# 48615
# 69155
# 89045
# 107992
# 123180
# 131455
# 143532
# 154534
# 162197
# 178365
# 189017
# 203937
# 215432
# 233537
# 244262
#
# Disc length: 3486 seconds
# Revision: 0
# Processed by: cddbd v1.5.1PL0 Copyright (c) Steve Scherf et al.
# Submitted via: VisiTrax 2.9.9.209 - For more info visit www.synapsa.com
#
DISCID=f80d9c13
DTITLE=Henrik Barner - Lights Out Boogie
DYEAR=1900
DGENRE=
TTITLE0=Take this hammer
TTITLE1=Oh, red
TTITLE2=Good rockin' tonight
TTITLE3=Big bad Bill
TTITLE4=Let it roll
TTITLE5=Nuts about that gal
TTITLE6=Keep your hands off her
TTITLE7=Simple man rag
TTITLE8=Blood red river
TTITLE9=Lights out boogie
TTITLE10=Sittin' on it all the time
TTITLE11=When did you leave heaven
TTITLE12=Low down dirty mean
TTITLE13=Rag mama rag
TTITLE14=Don't blame shorty for that
TTITLE15=It ain't nobody's business
TTITLE16=John Henry
TTITLE17=Let me play with yo' yo-yo
TTITLE18=She don't my mind
EXTD=
EXTT0=
EXTT1=
EXTT2=
EXTT3=
EXTT4=
EXTT5=
EXTT6=
EXTT7=
EXTT8=
EXTT9=
EXTT10=
EXTT11=
EXTT12=
EXTT13=
EXTT14=
EXTT15=
EXTT16=
EXTT17=
EXTT18=
PLAYORDER=
